<svg width="57" height="53" viewBox="0 0 57 53" fill="none" xmlns="http://www.w3.org/2000/svg">
<path d="M37.96 39.0231L52.1498 26.0154L37.96 13.0077" stroke="white" stroke-width="2" stroke-linecap="round" stroke-linejoin="round"/>
<path d="M19.0401 13.0077L4.85022 26.0154L19.0401 39.0231" stroke="white" stroke-width="2" stroke-linecap="round" stroke-linejoin="round"/>
<g clip-path="url(#clip0_302_3767)">
<path d="M28.5 35.1436C33.9996 35.1436 38.4578 31.0567 38.4578 26.0154C38.4578 20.974 33.9996 16.8872 28.5 16.8872C23.0005 16.8872 18.5422 20.974 18.5422 26.0154C18.5422 31.0567 23.0005 35.1436 28.5 35.1436Z" stroke="white" stroke-width="2" stroke-linecap="round" stroke-linejoin="round"/>
<path d="M18.5422 26.0154H38.4578" stroke="white" stroke-width="2" stroke-linecap="round" stroke-linejoin="round"/>
<path d="M28.5 16.8872C30.9907 19.3868 32.4062 22.6307 32.4831 26.0154C32.4062 29.4001 30.9907 32.644 28.5 35.1436C26.0092 32.644 24.5938 29.4001 24.5168 26.0154C24.5938 22.6307 26.0092 19.3868 28.5 16.8872Z" stroke="white" stroke-width="2" stroke-linecap="round" stroke-linejoin="round"/>
</g>
<defs>
<clipPath id="clip0_302_3767">
<rect width="23.8987" height="21.9077" fill="white" transform="translate(16.5507 15.0615)"/>
</clipPath>
</defs>
</svg>
